<svg width="225" height="331" viewBox="0 0 225 331" fill="none" xmlns="http://www.w3.org/2000/svg">
<path d="M59.6135 220.597C29.184 220.597 4.51599 195.929 4.51599 165.5C4.51599 135.07 29.184 110.402 59.6135 110.402C90.043 110.402 114.711 135.07 114.711 165.5C114.711 195.929 90.043 220.597 59.6135 220.597Z" fill="#384C5E"/>
<path d="M59.6114 330.711C81.9078 330.711 103.581 326.352 124.009 317.674C143.69 309.328 161.378 297.412 176.533 282.257C191.688 267.102 203.604 249.415 211.949 229.734C220.586 209.306 224.945 187.632 224.945 165.336H114.709C114.709 195.729 89.9627 220.475 59.5699 220.475C29.177 220.475 4.4724 195.729 4.4724 165.336H-105.764C-105.764 187.632 -101.404 209.306 -92.7267 229.734C-84.3811 249.415 -72.4648 267.102 -57.3098 282.257C-42.1549 297.412 -24.4673 309.328 -4.78664 317.674C15.6414 326.31 37.2734 330.711 59.6114 330.711Z" fill="#2C4255"/>
<path d="M-216.006 165.334H-105.77C-105.77 134.941 -81.0237 110.195 -50.6308 110.195C-20.2379 110.195 4.46667 134.941 4.46667 165.334H114.703C114.703 143.038 110.343 121.364 101.666 100.936C93.3202 81.2553 81.4038 63.5676 66.2489 48.4127C51.094 33.2578 33.4063 21.3414 13.7257 12.9959C-6.70231 4.35963 -28.3344 0 -50.6723 0C-73.0103 0 -94.6424 4.35963 -115.07 13.0374C-134.751 21.383 -152.439 33.2993 -167.594 48.4542C-182.748 63.6091 -194.665 81.2968 -203.01 100.977C-211.647 121.405 -216.006 143.038 -216.006 165.334Z" fill="#2C4255"/>
</svg>
