<svg width="323" height="218" viewBox="0 0 323 218" fill="none" xmlns="http://www.w3.org/2000/svg">
<path d="M165.332 220.597C195.761 220.597 220.429 195.929 220.429 165.5C220.429 135.07 195.761 110.402 165.332 110.402C134.902 110.402 110.234 135.07 110.234 165.5C110.234 195.929 134.902 220.597 165.332 220.597Z" fill="white" fill-opacity="0.15"/>
<path d="M165.334 330.711C143.038 330.711 121.364 326.352 100.936 317.674C81.2553 309.328 63.5676 297.412 48.4127 282.257C33.2578 267.102 21.3414 249.415 12.9959 229.734C4.35963 209.306 0 187.632 0 165.336H110.236C110.236 195.729 134.983 220.475 165.375 220.475C195.768 220.475 220.473 195.729 220.473 165.336H330.709C330.709 187.632 326.35 209.306 317.672 229.734C309.326 249.415 297.41 267.102 282.255 282.257C267.1 297.412 249.413 309.328 229.732 317.674C209.304 326.31 187.672 330.711 165.334 330.711Z" fill="#2C4255"/>
<path d="M440.944 165.334H330.707C330.707 134.941 305.961 110.195 275.568 110.195C245.175 110.195 220.471 134.941 220.471 165.334H110.234C110.234 143.038 114.594 121.364 123.272 100.936C131.617 81.2553 143.534 63.5676 158.689 48.4127C173.844 33.2578 191.531 21.3414 211.212 12.9959C231.64 4.35963 253.272 0 275.61 0C297.948 0 319.58 4.35963 340.008 13.0374C359.688 21.383 377.376 33.2993 392.531 48.4542C407.686 63.6091 419.602 81.2968 427.948 100.977C436.584 121.405 440.944 143.038 440.944 165.334Z" fill="#2C4255"/>
</svg>
