<svg width="16" height="16" viewBox="0 0 16 16" fill="none" xmlns="http://www.w3.org/2000/svg">
<path d="M4.78592 2.33331H8.54725C8.90859 2.33331 9.20059 2.33331 9.43592 2.35265C9.67925 2.37265 9.89259 2.41465 10.0899 2.51465C10.4034 2.67458 10.6583 2.92965 10.8179 3.24331C10.9186 3.44065 10.9606 3.65398 10.9806 3.89665C10.9999 4.13331 10.9999 4.42465 10.9999 4.78598V6.83331C10.9999 6.92172 10.9648 7.0065 10.9023 7.06902C10.8398 7.13153 10.755 7.16665 10.6666 7.16665C10.5782 7.16665 10.4934 7.13153 10.4309 7.06902C10.3684 7.0065 10.3333 6.92172 10.3333 6.83331V4.79998C10.3333 4.42131 10.3333 4.15731 10.3159 3.95131C10.2999 3.74998 10.2693 3.63398 10.2239 3.54598C10.1282 3.35775 9.97533 3.20466 9.78725 3.10865C9.69925 3.06398 9.58392 3.03331 9.38192 3.01731C9.17592 2.99998 8.91192 2.99998 8.53325 2.99998H4.79992C4.42125 2.99998 4.15725 2.99998 3.95125 3.01731C3.74992 3.03331 3.63392 3.06398 3.54592 3.10865C3.35759 3.20455 3.20449 3.35765 3.10859 3.54598C3.06392 3.63398 3.03325 3.74998 3.01725 3.95131C2.99992 4.15731 2.99992 4.42131 2.99992 4.79998V11.2C2.99992 11.5786 2.99992 11.8433 3.01725 12.0486C3.03325 12.25 3.06392 12.366 3.10859 12.454C3.20342 12.6398 3.35401 12.7913 3.53925 12.8873L3.54592 12.8886C3.55792 12.8913 3.58725 12.898 3.64192 12.906C3.72592 12.9184 3.83592 12.9295 3.97192 12.9393C4.24125 12.9593 4.58525 12.9726 4.94925 12.982C5.67525 13 6.45925 13 6.83325 13C6.92166 13 7.00644 13.0351 7.06895 13.0976C7.13147 13.1601 7.16659 13.2449 7.16659 13.3333C7.16659 13.4217 7.13147 13.5065 7.06895 13.569C7.00644 13.6315 6.92166 13.6666 6.83325 13.6666H6.83259C6.45925 13.6666 5.66725 13.6666 4.93259 13.6486C4.59563 13.6417 4.25887 13.627 3.92259 13.6046C3.79639 13.5962 3.67053 13.5833 3.54525 13.566C3.44094 13.5549 3.33903 13.5274 3.24325 13.4846C2.92959 13.325 2.67452 13.0702 2.51459 12.7566C2.41459 12.5593 2.37259 12.346 2.35259 12.1033C2.33325 11.8666 2.33325 11.5746 2.33325 11.2133V4.78665C2.33325 4.42531 2.33325 4.13331 2.35259 3.89798C2.37259 3.65465 2.41459 3.44131 2.51459 3.24398C2.6744 2.93022 2.92949 2.67513 3.24325 2.51531C3.44059 2.41531 3.65392 2.37331 3.89659 2.35331C4.13325 2.33331 4.42459 2.33331 4.78592 2.33331Z" fill="#334154"/>
<path d="M12.4133 8.33331C12.682 8.33331 12.9033 8.33331 13.084 8.34798C13.2713 8.36331 13.444 8.39598 13.6053 8.47865C13.8562 8.60648 14.0602 8.81044 14.188 9.06131C14.2707 9.22331 14.3033 9.39531 14.3187 9.58265C14.3333 9.76265 14.3333 9.98465 14.3333 10.2526V11.7473C14.3333 12.0153 14.3333 12.2366 14.3187 12.4173C14.3033 12.6046 14.2707 12.7773 14.188 12.9386C14.0602 13.1895 13.8562 13.3935 13.6053 13.5213C13.4433 13.604 13.2713 13.6366 13.084 13.652C12.904 13.6666 12.682 13.6666 12.414 13.6666H9.586C9.318 13.6666 9.09667 13.6666 8.916 13.652C8.72867 13.6366 8.556 13.604 8.39467 13.5213C8.1438 13.3935 7.93983 13.1895 7.812 12.9386C7.72933 12.7766 7.69667 12.6046 7.68133 12.4173C7.66667 12.2373 7.66667 12.0153 7.66667 11.7473V10.2526C7.66667 9.98465 7.66667 9.76331 7.68133 9.58265C7.69667 9.39531 7.72933 9.22265 7.812 9.06131C7.93983 8.81044 8.1438 8.60648 8.39467 8.47865C8.55667 8.39598 8.72867 8.36331 8.916 8.34798C9.096 8.33331 9.318 8.33331 9.586 8.33331H12.4133ZM8.97067 9.01265C8.824 9.02465 8.74933 9.04598 8.69733 9.07265C8.5719 9.13656 8.46991 9.23854 8.406 9.36398C8.37933 9.41598 8.358 9.49065 8.346 9.63731L8.34333 9.66665H13.6567L13.654 9.63731C13.642 9.49065 13.6207 9.41598 13.594 9.36398C13.5301 9.23854 13.4281 9.13656 13.3027 9.07265C13.2507 9.04598 13.176 9.02465 13.0293 9.01265C12.8198 9.0008 12.6099 8.99658 12.4 8.99998H9.6C9.31467 8.99998 9.12 8.99998 8.97067 9.01265ZM13.6667 11H8.33333V11.7333C8.33333 12.0186 8.33333 12.2133 8.346 12.3626C8.358 12.5093 8.37933 12.584 8.406 12.636C8.46991 12.7614 8.5719 12.8634 8.69733 12.9273C8.74933 12.954 8.824 12.9753 8.97067 12.9873C9.12067 13 9.31467 13 9.6 13H12.4C12.6853 13 12.88 13 13.0293 12.9873C13.176 12.9753 13.2507 12.954 13.3027 12.9273C13.4281 12.8634 13.5301 12.7614 13.594 12.636C13.6207 12.584 13.642 12.5093 13.654 12.3626C13.6667 12.2126 13.6667 12.0186 13.6667 11.7333V11ZM4.33333 4.33331C4.24493 4.33331 4.16014 4.36843 4.09763 4.43094C4.03512 4.49346 4 4.57824 4 4.66665C4 4.75505 4.03512 4.83984 4.09763 4.90235C4.16014 4.96486 4.24493 4.99998 4.33333 4.99998H7C7.08841 4.99998 7.17319 4.96486 7.2357 4.90235C7.29821 4.83984 7.33333 4.75505 7.33333 4.66665C7.33333 4.57824 7.29821 4.49346 7.2357 4.43094C7.17319 4.36843 7.08841 4.33331 7 4.33331H4.33333ZM4 6.66665C4 6.57824 4.03512 6.49346 4.09763 6.43094C4.16014 6.36843 4.24493 6.33331 4.33333 6.33331H9C9.08841 6.33331 9.17319 6.36843 9.2357 6.43094C9.29821 6.49346 9.33333 6.57824 9.33333 6.66665C9.33333 6.75505 9.29821 6.83984 9.2357 6.90235C9.17319 6.96486 9.08841 6.99998 9 6.99998H4.33333C4.24493 6.99998 4.16014 6.96486 4.09763 6.90235C4.03512 6.83984 4 6.75505 4 6.66665ZM4.33333 8.33331C4.24493 8.33331 4.16014 8.36843 4.09763 8.43094C4.03512 8.49346 4 8.57824 4 8.66665C4 8.75505 4.03512 8.83984 4.09763 8.90235C4.16014 8.96486 4.24493 8.99998 4.33333 8.99998H6.66667C6.75507 8.99998 6.83986 8.96486 6.90237 8.90235C6.96488 8.83984 7 8.75505 7 8.66665C7 8.57824 6.96488 8.49346 6.90237 8.43094C6.83986 8.36843 6.75507 8.33331 6.66667 8.33331H4.33333ZM4 11.3333C4 11.2449 4.03512 11.1601 4.09763 11.0976C4.16014 11.0351 4.24493 11 4.33333 11H5.66667C5.75507 11 5.83986 11.0351 5.90237 11.0976C5.96488 11.1601 6 11.2449 6 11.3333C6 11.4217 5.96488 11.5065 5.90237 11.569C5.83986 11.6315 5.75507 11.6666 5.66667 11.6666H4.33333C4.24493 11.6666 4.16014 11.6315 4.09763 11.569C4.03512 11.5065 4 11.4217 4 11.3333Z" fill="black"/>
</svg>
