<svg width="16" height="16" viewBox="0 0 16 16" fill="none" xmlns="http://www.w3.org/2000/svg">
<path d="M7.99992 2.5C9.95192 2.5 11.4999 4.01667 11.4999 5.84667C11.4999 6.98667 11.2066 7.56733 10.8346 8.09533C10.7501 8.21356 10.6575 8.338 10.5566 8.46867C10.2073 8.92533 9.78725 9.47533 9.48925 10.268C9.42844 10.4314 9.3495 10.5875 9.25392 10.7333L9.21659 10.7867C9.13496 10.9034 9.0411 11.0112 8.93659 11.108C8.66592 11.356 8.34059 11.5 7.99992 11.5C7.65992 11.5 7.33392 11.356 7.06259 11.108C6.95804 11.011 6.86417 10.903 6.78259 10.786L6.74592 10.7327C6.65038 10.587 6.57144 10.4312 6.51059 10.268C6.21259 9.47467 5.79259 8.92533 5.44325 8.468C5.34818 8.34536 5.2555 8.2209 5.16525 8.09467C4.79392 7.568 4.49992 6.98667 4.49992 5.846C4.49992 4.01667 6.04859 2.5 7.99992 2.5ZM10.1113 11.246C10.2393 11.046 10.3446 10.8347 10.4253 10.6193C10.6666 9.97733 10.9706 9.578 11.3039 9.14133C11.4173 8.99267 11.5339 8.83933 11.6526 8.67067C12.1259 7.99867 12.4999 7.22067 12.4999 5.846C12.4999 3.42733 10.4666 1.5 7.99992 1.5C5.53325 1.5 3.49992 3.42733 3.49992 5.84667C3.49992 7.22 3.87392 7.99867 4.34725 8.67067C4.46592 8.83933 4.58259 8.99267 4.69592 9.14133C5.02925 9.578 5.33325 9.97733 5.57459 10.6193C5.65525 10.8347 5.76125 11.046 5.88859 11.246L6.03659 12.7233C6.08575 13.2099 6.31382 13.6608 6.67657 13.9887C7.03932 14.3167 7.51091 14.4983 7.99992 14.4983C8.48893 14.4983 8.96052 14.3167 9.32327 13.9887C9.68602 13.6608 9.91408 13.2099 9.96325 12.7233L10.1113 11.246ZM9.00459 12.266L8.96859 12.6233C8.94495 12.8638 8.83269 13.0869 8.65365 13.2493C8.4746 13.4116 8.24158 13.5015 7.99992 13.5015C7.75826 13.5015 7.52523 13.4116 7.34619 13.2493C7.16715 13.0869 7.05489 12.8638 7.03125 12.6233L6.99592 12.266C7.29592 12.414 7.63259 12.5 7.99992 12.5C8.36659 12.5 8.70392 12.4133 9.00392 12.266M1.61525 2.01267C1.70024 1.91096 1.82213 1.84715 1.95414 1.83527C2.08615 1.8234 2.21748 1.86442 2.31925 1.94933L3.31925 2.78267C3.41749 2.86861 3.47823 2.98957 3.48849 3.1197C3.49874 3.24982 3.45771 3.3788 3.37414 3.47908C3.29058 3.57935 3.17112 3.64298 3.04127 3.65635C2.91143 3.66973 2.7815 3.6318 2.67925 3.55067L1.67925 2.71733C1.57744 2.63244 1.51351 2.5106 1.50151 2.37858C1.48951 2.24657 1.53042 2.11453 1.61525 2.01267ZM14.3833 2.01333C14.4254 2.06379 14.4571 2.12205 14.4767 2.18478C14.4963 2.24751 14.5033 2.31349 14.4973 2.37893C14.4914 2.44438 14.4726 2.50801 14.442 2.56619C14.4115 2.62437 14.3698 2.67596 14.3193 2.718L13.3193 3.55133C13.2691 3.59523 13.2106 3.62865 13.1473 3.64963C13.0841 3.6706 13.0172 3.67871 12.9507 3.67347C12.8843 3.66823 12.8195 3.64975 12.7603 3.61912C12.7011 3.58849 12.6486 3.54633 12.6059 3.49511C12.5632 3.44389 12.5312 3.38465 12.5118 3.32088C12.4923 3.25711 12.4858 3.1901 12.4927 3.12378C12.4995 3.05746 12.5195 2.99317 12.5516 2.93471C12.5836 2.87624 12.627 2.82477 12.6793 2.78333L13.6793 1.95C13.7811 1.86517 13.9125 1.82425 14.0445 1.83626C14.1765 1.84826 14.2984 1.91152 14.3833 2.01333ZM0.833252 5.5C0.833252 5.36739 0.88593 5.24021 0.979699 5.14645C1.07347 5.05268 1.20064 5 1.33325 5H2.66659C2.79919 5 2.92637 5.05268 3.02014 5.14645C3.11391 5.24021 3.16659 5.36739 3.16659 5.5C3.16659 5.63261 3.11391 5.75979 3.02014 5.85355C2.92637 5.94732 2.79919 6 2.66659 6H1.33325C1.20064 6 1.07347 5.94732 0.979699 5.85355C0.88593 5.75979 0.833252 5.63261 0.833252 5.5ZM12.8333 5.5C12.8333 5.36739 12.8859 5.24021 12.9797 5.14645C13.0735 5.05268 13.2006 5 13.3333 5H14.6666C14.7992 5 14.9264 5.05268 15.0201 5.14645C15.1139 5.24021 15.1666 5.36739 15.1666 5.5C15.1666 5.63261 15.1139 5.75979 15.0201 5.85355C14.9264 5.94732 14.7992 6 14.6666 6H13.3333C13.2006 6 13.0735 5.94732 12.9797 5.85355C12.8859 5.75979 12.8333 5.63261 12.8333 5.5ZM3.44659 7.94333C3.50586 8.06189 3.51563 8.19914 3.47375 8.3249C3.43187 8.45066 3.34177 8.55465 3.22325 8.614L2.22325 9.114C2.16444 9.14393 2.10029 9.16193 2.0345 9.16695C1.9687 9.17198 1.90256 9.16392 1.83989 9.14326C1.77722 9.1226 1.71926 9.08974 1.66935 9.04657C1.61944 9.0034 1.57857 8.95078 1.54909 8.89174C1.51962 8.8327 1.50212 8.76841 1.49761 8.70258C1.4931 8.63675 1.50166 8.57067 1.52281 8.50816C1.54396 8.44566 1.57727 8.38795 1.62083 8.33838C1.66438 8.28881 1.71732 8.24835 1.77659 8.21933L2.77659 7.71933C2.89523 7.66011 3.03254 7.65043 3.15831 7.69244C3.28408 7.73445 3.38735 7.8247 3.44659 7.94333ZM12.5539 7.94333C12.6132 7.82487 12.717 7.73475 12.8426 7.69275C12.9682 7.65076 13.1053 7.66032 13.2239 7.71933L14.2239 8.21933C14.2832 8.24835 14.3361 8.28881 14.3797 8.33838C14.4232 8.38795 14.4565 8.44566 14.4777 8.50816C14.4988 8.57067 14.5074 8.63675 14.5029 8.70258C14.4984 8.76841 14.4809 8.8327 14.4514 8.89174C14.4219 8.95078 14.3811 9.0034 14.3312 9.04657C14.2812 9.08974 14.2233 9.1226 14.1606 9.14326C14.0979 9.16392 14.0318 9.17198 13.966 9.16695C13.9002 9.16193 13.8361 9.14393 13.7773 9.114L12.7773 8.614C12.6586 8.55477 12.5684 8.45083 12.5264 8.32506C12.4844 8.19928 12.4947 8.06197 12.5539 7.94333Z" fill="white"/>
</svg>
