<svg width="48" height="48" viewBox="0 0 48 48" fill="none" xmlns="http://www.w3.org/2000/svg">
<rect width="48" height="48" rx="24" fill="#93C01F"/>
<path d="M27.75 29.6953L31.7227 25.7227L32.7773 26.7773L27.75 31.8047L24.9727 29.0273L26.0273 27.9727L27.75 29.6953ZM36 21V36H21V26.8477C20.5234 26.9492 20.0234 27 19.5 27C18.4609 27 17.4883 26.8047 16.582 26.4141C15.6758 26.0234 14.8789 25.4883 14.1914 24.8086C13.5039 24.1289 12.9688 23.3359 12.5859 22.4297C12.2031 21.5234 12.0078 20.5469 12 19.5C12 18.4609 12.1953 17.4883 12.5859 16.582C12.9766 15.6758 13.5117 14.8789 14.1914 14.1914C14.8711 13.5039 15.6641 12.9688 16.5703 12.5859C17.4766 12.2031 18.4531 12.0078 19.5 12C20.5391 12 21.5117 12.1953 22.418 12.5859C23.3242 12.9766 24.1211 13.5117 24.8086 14.1914C25.4961 14.8711 26.0312 15.6641 26.4141 16.5703C26.7969 17.4766 26.9922 18.4531 27 19.5C27 20.0234 26.9492 20.5234 26.8477 21H36ZM13.5 19.5C13.5 20.3281 13.6562 21.1055 13.9688 21.832C14.2812 22.5586 14.7109 23.1914 15.2578 23.7305C15.8047 24.2695 16.4414 24.6992 17.168 25.0195C17.8945 25.3398 18.6719 25.5 19.5 25.5C20.3281 25.5 21.1055 25.3438 21.832 25.0312C22.5586 24.7188 23.1914 24.2891 23.7305 23.7422C24.2695 23.1953 24.6992 22.5586 25.0195 21.832C25.3398 21.1055 25.5 20.3281 25.5 19.5C25.5 18.6719 25.3438 17.8945 25.0312 17.168C24.7188 16.4414 24.2891 15.8086 23.7422 15.2695C23.1953 14.7305 22.5586 14.3008 21.832 13.9805C21.1055 13.6602 20.3281 13.5 19.5 13.5C18.6719 13.5 17.8945 13.6562 17.168 13.9688C16.4414 14.2812 15.8086 14.7109 15.2695 15.2578C14.7305 15.8047 14.3008 16.4414 13.9805 17.168C13.6602 17.8945 13.5 18.6719 13.5 19.5ZM34.5 22.5H26.3789C25.9805 23.3828 25.457 24.1484 24.8086 24.7969C24.1602 25.4453 23.3906 25.9727 22.5 26.3789V34.5H34.5V22.5ZM23.7773 17.7773L18.75 22.8047L15.9727 20.0273L17.0273 18.9727L18.75 20.6953L22.7227 16.7227L23.7773 17.7773Z" fill="white"/>
</svg>
