<svg width="14" height="14" viewBox="0 0 14 14" fill="none" xmlns="http://www.w3.org/2000/svg">
<path d="M7.98359 0H2.66625C2.54241 0.00012796 2.42105 0.0347503 2.31578 0.0999851C2.21051 0.16522 2.12549 0.258488 2.07025 0.369333L0.0702536 4.36933C0.015007 4.47995 -0.00839054 4.60374 0.00267609 4.72689C0.0137427 4.85003 0.0588375 4.96768 0.13292 5.06667L6.12359 13.0533C6.20992 13.1744 6.33423 13.2631 6.47677 13.3054C6.61931 13.3476 6.77189 13.3411 6.91025 13.2867C7.03012 13.2398 7.13385 13.1592 7.20892 13.0547L13.1996 5.06667C13.2739 4.96754 13.3192 4.84965 13.3302 4.72624C13.3413 4.60283 13.3178 4.47878 13.2623 4.368L11.2623 0.368C11.2068 0.257404 11.1217 0.164409 11.0165 0.099418C10.9112 0.0344272 10.79 4.15112e-06 10.6663 0H7.98359ZM7.51959 1.33333L8.40759 4H4.92492L5.81292 1.33333H7.51959ZM9.81292 4L8.92492 1.33333H10.2543L11.5876 4H9.81292ZM8.40759 5.33333L6.66625 10.56L4.92492 5.33333H8.40759ZM8.59825 8.98L9.81292 5.33333H11.3329L8.59825 8.98ZM4.73425 8.98L1.99959 5.33333H3.51959L4.73425 8.98ZM3.51959 4H1.74492L3.07825 1.33333H4.40759L3.51959 4Z" fill="white"/>
</svg>
