<svg width="48" height="48" viewBox="0 0 48 48" fill="none" xmlns="http://www.w3.org/2000/svg">
<rect width="48" height="48" rx="24" fill="#93C01F"/>
<path d="M21 18C21 17.2044 21.3161 16.4413 21.8787 15.8787C22.4413 15.3161 23.2044 15 24 15C24.7956 15 25.5587 15.3161 26.1213 15.8787C26.6839 16.4413 27 17.2044 27 18C27 18.7956 26.6839 19.5587 26.1213 20.1213C25.5587 20.6839 24.7956 21 24 21C23.2044 21 22.4413 20.6839 21.8787 20.1213C21.3161 19.5587 21 18.7956 21 18ZM18.75 27.75C18.75 24.8484 21.0984 22.5 24 22.5C26.9016 22.5 29.25 24.8484 29.25 27.75V28.125C29.25 28.7484 28.7484 29.25 28.125 29.25H19.875C19.2516 29.25 18.75 28.7484 18.75 28.125V27.75ZM28.875 18.75C28.875 18.0538 29.1516 17.3861 29.6438 16.8938C30.1361 16.4016 30.8038 16.125 31.5 16.125C32.1962 16.125 32.8639 16.4016 33.3562 16.8938C33.8484 17.3861 34.125 18.0538 34.125 18.75C34.125 19.4462 33.8484 20.1139 33.3562 20.6062C32.8639 21.0984 32.1962 21.375 31.5 21.375C30.8038 21.375 30.1361 21.0984 29.6438 20.6062C29.1516 20.1139 28.875 19.4462 28.875 18.75ZM30.15 23.4562C30.5766 23.3203 31.0312 23.25 31.5 23.25C33.9844 23.25 36 25.2656 36 27.75V28.2516C36 28.8047 35.55 29.25 35.0016 29.25H31.3078C31.4344 28.8984 31.5 28.5188 31.5 28.125V27.75C31.5 26.1516 31.0031 24.6703 30.15 23.4562ZM17.85 23.4562C16.9969 24.675 16.5 26.1516 16.5 27.75V28.125C16.5 28.5188 16.5656 28.8984 16.6922 29.25H12.9984C12.45 29.25 12 28.8 12 28.2516V27.75C12 25.2656 14.0156 23.25 16.5 23.25C16.9688 23.25 17.4234 23.3203 17.85 23.4562ZM13.875 18.75C13.875 18.0538 14.1516 17.3861 14.6438 16.8938C15.1361 16.4016 15.8038 16.125 16.5 16.125C17.1962 16.125 17.8639 16.4016 18.3562 16.8938C18.8484 17.3861 19.125 18.0538 19.125 18.75C19.125 19.4462 18.8484 20.1139 18.3562 20.6062C17.8639 21.0984 17.1962 21.375 16.5 21.375C15.8038 21.375 15.1361 21.0984 14.6438 20.6062C14.1516 20.1139 13.875 19.4462 13.875 18.75ZM10.5 32.625C10.5 32.0016 11.0016 31.5 11.625 31.5H36.375C36.9984 31.5 37.5 32.0016 37.5 32.625C37.5 33.2484 36.9984 33.75 36.375 33.75H11.625C11.0016 33.75 10.5 33.2484 10.5 32.625Z" fill="white"/>
</svg>
