<svg width="48" height="48" viewBox="0 0 48 48" fill="none" xmlns="http://www.w3.org/2000/svg">
<rect width="48" height="48" rx="24" fill="#93C01F"/>
<rect width="48" height="48" rx="24" fill="#93C01F"/>
<rect width="48" height="48" rx="24" fill="#93C01F"/>
<path d="M15.414 25.7779L14 27.1919L18.949 29.3129L21.071 34.2629L22.485 32.8489L21.778 29.3129L25.091 25.9999L28.701 33.7039L30.04 32.3649L28.85 22.2419L31.678 19.4129C31.869 19.2284 32.0214 19.0078 32.1262 18.7638C32.231 18.5197 32.2862 18.2573 32.2885 17.9917C32.2908 17.7262 32.2402 17.4628 32.1396 17.217C32.0391 16.9712 31.8906 16.7479 31.7028 16.5602C31.515 16.3724 31.2917 16.2239 31.0459 16.1233C30.8001 16.0227 30.5368 15.9721 30.2712 15.9744C30.0056 15.9767 29.7432 16.0319 29.4992 16.1367C29.2552 16.2416 29.0345 16.3939 28.85 16.5849L25.947 19.4879L15.824 18.2969L14.559 19.5629L22.203 23.2329L18.95 26.4859L15.414 25.7779Z" fill="white"/>
</svg>
