<svg width="38" height="38" viewBox="0 0 38 38" fill="none" xmlns="http://www.w3.org/2000/svg">
<path d="M29.5627 20.7913L30.6286 20.7665C42.3045 20.5682 38.4125 3.41391 25.9186 7.95038C16.697 11.297 18.4074 26.6912 28.2736 29.2197C32.6366 30.3352 37.4953 29.542 33.8761 28.3025C30.7774 27.2614 28.2736 24.2618 28.4472 21.8077C28.4967 21.2623 28.9677 20.7913 29.5627 20.7913Z" fill="#93C01F"/>
<path d="M6.78054 7.3307C-4.44909 11.6441 0.112175 30.484 12.5813 31.3021C15.8287 31.5252 16.6715 30.7567 14.2174 29.8395C11.8376 28.9471 8.83806 24.7329 8.5158 21.8821C8.44143 21.3119 8.88764 20.8409 9.4578 20.8409C12.73 20.8409 14.0934 20.8409 16.0022 18.2133C20.6874 11.7184 14.4653 4.38076 6.78054 7.3307Z" fill="#93C01F"/>
</svg>
